<mxfile host="Electron" agent="Mozilla/5.0 (Windows NT 10.0; Win64; x64) AppleWebKit/537.36 (KHTML, like Gecko) draw.io/24.7.17 Chrome/128.0.6613.36 Electron/32.0.1 Safari/537.36" version="24.7.17">
  <diagram name="第 1 页" id="W7OoAg3IoYqaoRPKlsb8">
    <mxGraphModel dx="2074" dy="1197" grid="0" gridSize="10" guides="1" tooltips="1" connect="1" arrows="1" fold="1" page="1" pageScale="1" pageWidth="1169" pageHeight="827" math="0" shadow="0">
      <root>
        <mxCell id="0" />
        <mxCell id="1" parent="0" />
        <mxCell id="u6kIUCjwU4QeKvZHba0g-17" value="" style="rounded=0;whiteSpace=wrap;html=1;dashed=1;fillColor=none;" parent="1" vertex="1">
          <mxGeometry x="508" y="446" width="329" height="217" as="geometry" />
        </mxCell>
        <mxCell id="u6kIUCjwU4QeKvZHba0g-14" value="" style="rounded=0;whiteSpace=wrap;html=1;dashed=1;fillColor=none;" parent="1" vertex="1">
          <mxGeometry x="508" y="107" width="329" height="313" as="geometry" />
        </mxCell>
        <mxCell id="u6kIUCjwU4QeKvZHba0g-12" style="edgeStyle=orthogonalEdgeStyle;rounded=0;orthogonalLoop=1;jettySize=auto;html=1;" parent="1" source="u6kIUCjwU4QeKvZHba0g-1" target="u6kIUCjwU4QeKvZHba0g-11" edge="1">
          <mxGeometry relative="1" as="geometry" />
        </mxCell>
        <mxCell id="u6kIUCjwU4QeKvZHba0g-1" value="" style="sketch=0;pointerEvents=1;shadow=0;dashed=0;html=1;strokeColor=none;labelPosition=center;verticalLabelPosition=bottom;verticalAlign=top;align=center;fillColor=#515151;shape=mxgraph.mscae.system_center.admin_console" parent="1" vertex="1">
          <mxGeometry x="180" y="330" width="71" height="53" as="geometry" />
        </mxCell>
        <mxCell id="u6kIUCjwU4QeKvZHba0g-2" value="" style="dashed=0;outlineConnect=0;html=1;align=center;labelPosition=center;verticalLabelPosition=bottom;verticalAlign=top;shape=mxgraph.weblogos.github" parent="1" vertex="1">
          <mxGeometry x="364" y="646" width="75" height="75" as="geometry" />
        </mxCell>
        <mxCell id="u6kIUCjwU4QeKvZHba0g-4" value="" style="rounded=0;whiteSpace=wrap;html=1;fillColor=none;" parent="1" vertex="1">
          <mxGeometry x="540" y="301" width="257" height="85" as="geometry" />
        </mxCell>
        <mxCell id="u6kIUCjwU4QeKvZHba0g-5" value="sealed-secrets" style="text;html=1;align=center;verticalAlign=middle;whiteSpace=wrap;rounded=0;" parent="1" vertex="1">
          <mxGeometry x="584" y="305" width="162" height="30" as="geometry" />
        </mxCell>
        <mxCell id="u6kIUCjwU4QeKvZHba0g-7" value="Public Key" style="rounded=1;whiteSpace=wrap;html=1;fillColor=none;" parent="1" vertex="1">
          <mxGeometry x="560" y="341" width="98" height="31" as="geometry" />
        </mxCell>
        <mxCell id="u6kIUCjwU4QeKvZHba0g-8" value="Private Key" style="rounded=1;whiteSpace=wrap;html=1;fillColor=none;" parent="1" vertex="1">
          <mxGeometry x="679" y="341" width="98" height="31" as="geometry" />
        </mxCell>
        <mxCell id="u6kIUCjwU4QeKvZHba0g-10" style="edgeStyle=orthogonalEdgeStyle;rounded=0;orthogonalLoop=1;jettySize=auto;html=1;" parent="1" source="u6kIUCjwU4QeKvZHba0g-9" target="u6kIUCjwU4QeKvZHba0g-5" edge="1">
          <mxGeometry relative="1" as="geometry" />
        </mxCell>
        <mxCell id="u6kIUCjwU4QeKvZHba0g-38" style="edgeStyle=orthogonalEdgeStyle;rounded=0;orthogonalLoop=1;jettySize=auto;html=1;entryX=1;entryY=0.5;entryDx=0;entryDy=0;exitX=1;exitY=0.5;exitDx=0;exitDy=0;" parent="1" source="u6kIUCjwU4QeKvZHba0g-9" target="u6kIUCjwU4QeKvZHba0g-24" edge="1">
          <mxGeometry relative="1" as="geometry">
            <Array as="points">
              <mxPoint x="989" y="189" />
              <mxPoint x="989" y="589" />
            </Array>
          </mxGeometry>
        </mxCell>
        <mxCell id="u6kIUCjwU4QeKvZHba0g-9" value="Sealed Secrets Controller" style="rounded=0;whiteSpace=wrap;html=1;fillColor=none;" parent="1" vertex="1">
          <mxGeometry x="536.5" y="146" width="257" height="85" as="geometry" />
        </mxCell>
        <mxCell id="u6kIUCjwU4QeKvZHba0g-34" style="edgeStyle=orthogonalEdgeStyle;rounded=0;orthogonalLoop=1;jettySize=auto;html=1;entryX=1;entryY=0.5;entryDx=0;entryDy=0;exitX=1;exitY=0.5;exitDx=0;exitDy=0;" parent="1" source="u6kIUCjwU4QeKvZHba0g-9" target="u6kIUCjwU4QeKvZHba0g-25" edge="1">
          <mxGeometry relative="1" as="geometry">
            <Array as="points">
              <mxPoint x="913" y="189" />
              <mxPoint x="913" y="511" />
            </Array>
          </mxGeometry>
        </mxCell>
        <mxCell id="u6kIUCjwU4QeKvZHba0g-13" style="edgeStyle=orthogonalEdgeStyle;rounded=0;orthogonalLoop=1;jettySize=auto;html=1;" parent="1" source="u6kIUCjwU4QeKvZHba0g-11" target="u6kIUCjwU4QeKvZHba0g-7" edge="1">
          <mxGeometry relative="1" as="geometry" />
        </mxCell>
        <mxCell id="u6kIUCjwU4QeKvZHba0g-41" style="edgeStyle=orthogonalEdgeStyle;rounded=0;orthogonalLoop=1;jettySize=auto;html=1;entryX=1;entryY=0.5;entryDx=0;entryDy=0;exitX=0.5;exitY=1;exitDx=0;exitDy=0;" parent="1" source="u6kIUCjwU4QeKvZHba0g-11" target="u6kIUCjwU4QeKvZHba0g-32" edge="1">
          <mxGeometry relative="1" as="geometry" />
        </mxCell>
        <mxCell id="u6kIUCjwU4QeKvZHba0g-44" style="edgeStyle=orthogonalEdgeStyle;rounded=0;orthogonalLoop=1;jettySize=auto;html=1;" parent="1" source="u6kIUCjwU4QeKvZHba0g-11" target="u6kIUCjwU4QeKvZHba0g-33" edge="1">
          <mxGeometry relative="1" as="geometry" />
        </mxCell>
        <mxCell id="u6kIUCjwU4QeKvZHba0g-11" value="kubeseal" style="rounded=1;whiteSpace=wrap;html=1;fillColor=none;" parent="1" vertex="1">
          <mxGeometry x="352" y="337" width="99" height="39" as="geometry" />
        </mxCell>
        <mxCell id="u6kIUCjwU4QeKvZHba0g-26" style="edgeStyle=orthogonalEdgeStyle;rounded=0;orthogonalLoop=1;jettySize=auto;html=1;entryX=0.5;entryY=1;entryDx=0;entryDy=0;" parent="1" source="u6kIUCjwU4QeKvZHba0g-24" target="u6kIUCjwU4QeKvZHba0g-25" edge="1">
          <mxGeometry relative="1" as="geometry" />
        </mxCell>
        <mxCell id="u6kIUCjwU4QeKvZHba0g-24" value="Secret" style="rounded=0;whiteSpace=wrap;html=1;fillColor=none;" parent="1" vertex="1">
          <mxGeometry x="622.5" y="568" width="100" height="41" as="geometry" />
        </mxCell>
        <mxCell id="u6kIUCjwU4QeKvZHba0g-25" value="SealedSecret" style="rounded=0;whiteSpace=wrap;html=1;fillColor=none;" parent="1" vertex="1">
          <mxGeometry x="622.5" y="491" width="100" height="41" as="geometry" />
        </mxCell>
        <mxCell id="u6kIUCjwU4QeKvZHba0g-27" value="dev/test/stage" style="text;html=1;align=center;verticalAlign=middle;whiteSpace=wrap;rounded=0;" parent="1" vertex="1">
          <mxGeometry x="613" y="633" width="111" height="30" as="geometry" />
        </mxCell>
        <mxCell id="u6kIUCjwU4QeKvZHba0g-28" value="kube-system" style="text;html=1;align=center;verticalAlign=middle;whiteSpace=wrap;rounded=0;" parent="1" vertex="1">
          <mxGeometry x="613" y="390" width="111" height="30" as="geometry" />
        </mxCell>
        <mxCell id="u6kIUCjwU4QeKvZHba0g-29" value="ownerReference" style="text;html=1;align=center;verticalAlign=middle;whiteSpace=wrap;rounded=0;" parent="1" vertex="1">
          <mxGeometry x="668" y="535" width="120" height="30" as="geometry" />
        </mxCell>
        <mxCell id="u6kIUCjwU4QeKvZHba0g-30" value="" style="image;sketch=0;aspect=fixed;html=1;points=[];align=center;fontSize=12;image=img/lib/mscae/Kubernetes.svg;" parent="1" vertex="1">
          <mxGeometry x="816" y="409" width="50" height="48" as="geometry" />
        </mxCell>
        <mxCell id="u6kIUCjwU4QeKvZHba0g-32" value="" style="shape=image;verticalLabelPosition=bottom;labelBackgroundColor=default;verticalAlign=top;aspect=fixed;imageAspect=0;image=https://uxwing.com/wp-content/themes/uxwing/download/file-and-folder-type/yaml-file-icon.png;" parent="1" vertex="1">
          <mxGeometry x="187.5" y="409" width="57" height="57" as="geometry" />
        </mxCell>
        <mxCell id="u6kIUCjwU4QeKvZHba0g-43" style="edgeStyle=orthogonalEdgeStyle;rounded=0;orthogonalLoop=1;jettySize=auto;html=1;entryX=0;entryY=0.5;entryDx=0;entryDy=0;" parent="1" source="u6kIUCjwU4QeKvZHba0g-33" target="u6kIUCjwU4QeKvZHba0g-25" edge="1">
          <mxGeometry relative="1" as="geometry" />
        </mxCell>
        <mxCell id="u6kIUCjwU4QeKvZHba0g-33" value="" style="shape=image;verticalLabelPosition=bottom;labelBackgroundColor=default;verticalAlign=top;aspect=fixed;imageAspect=0;image=https://uxwing.com/wp-content/themes/uxwing/download/file-and-folder-type/yaml-file-icon.png;" parent="1" vertex="1">
          <mxGeometry x="373" y="483" width="57" height="57" as="geometry" />
        </mxCell>
        <mxCell id="u6kIUCjwU4QeKvZHba0g-37" value="Watch" style="text;html=1;align=center;verticalAlign=middle;whiteSpace=wrap;rounded=0;" parent="1" vertex="1">
          <mxGeometry x="837" y="510" width="60" height="30" as="geometry" />
        </mxCell>
        <mxCell id="u6kIUCjwU4QeKvZHba0g-39" value="Create" style="text;html=1;align=center;verticalAlign=middle;whiteSpace=wrap;rounded=0;" parent="1" vertex="1">
          <mxGeometry x="837" y="588" width="60" height="30" as="geometry" />
        </mxCell>
        <mxCell id="u6kIUCjwU4QeKvZHba0g-40" value="Secret.yaml" style="text;html=1;align=center;verticalAlign=middle;whiteSpace=wrap;rounded=0;" parent="1" vertex="1">
          <mxGeometry x="185.5" y="471" width="60" height="30" as="geometry" />
        </mxCell>
        <mxCell id="u6kIUCjwU4QeKvZHba0g-49" style="edgeStyle=orthogonalEdgeStyle;rounded=0;orthogonalLoop=1;jettySize=auto;html=1;" parent="1" source="u6kIUCjwU4QeKvZHba0g-42" target="u6kIUCjwU4QeKvZHba0g-2" edge="1">
          <mxGeometry relative="1" as="geometry" />
        </mxCell>
        <mxCell id="u6kIUCjwU4QeKvZHba0g-42" value="Sealed-Secret.yaml" style="text;html=1;align=center;verticalAlign=middle;whiteSpace=wrap;rounded=0;" parent="1" vertex="1">
          <mxGeometry x="339.75" y="549" width="123.5" height="30" as="geometry" />
        </mxCell>
        <mxCell id="u6kIUCjwU4QeKvZHba0g-45" value="Read &amp;amp; Encrypt" style="text;html=1;align=center;verticalAlign=middle;whiteSpace=wrap;rounded=0;" parent="1" vertex="1">
          <mxGeometry x="274" y="409" width="105" height="30" as="geometry" />
        </mxCell>
        <mxCell id="u6kIUCjwU4QeKvZHba0g-46" value="CLI" style="text;html=1;align=center;verticalAlign=middle;whiteSpace=wrap;rounded=0;" parent="1" vertex="1">
          <mxGeometry x="267" y="326" width="60" height="30" as="geometry" />
        </mxCell>
        <mxCell id="u6kIUCjwU4QeKvZHba0g-47" value="Use" style="text;html=1;align=center;verticalAlign=middle;whiteSpace=wrap;rounded=0;" parent="1" vertex="1">
          <mxGeometry x="451" y="326" width="60" height="30" as="geometry" />
        </mxCell>
        <mxCell id="u6kIUCjwU4QeKvZHba0g-48" value="Create" style="text;html=1;align=center;verticalAlign=middle;whiteSpace=wrap;rounded=0;" parent="1" vertex="1">
          <mxGeometry x="664" y="251" width="60" height="30" as="geometry" />
        </mxCell>
        <mxCell id="u6kIUCjwU4QeKvZHba0g-50" value="Checkin" style="text;html=1;align=center;verticalAlign=middle;whiteSpace=wrap;rounded=0;" parent="1" vertex="1">
          <mxGeometry x="342" y="594" width="60" height="30" as="geometry" />
        </mxCell>
        <mxCell id="u6kIUCjwU4QeKvZHba0g-51" value="Apply" style="text;html=1;align=center;verticalAlign=middle;whiteSpace=wrap;rounded=0;" parent="1" vertex="1">
          <mxGeometry x="437" y="480" width="60" height="30" as="geometry" />
        </mxCell>
        <mxCell id="wGFufMUT0XvceuGr_Mj1-5" value="Generate" style="text;html=1;align=center;verticalAlign=middle;whiteSpace=wrap;rounded=0;" parent="1" vertex="1">
          <mxGeometry x="342" y="446" width="60" height="30" as="geometry" />
        </mxCell>
      </root>
    </mxGraphModel>
  </diagram>
</mxfile>
